<svg width="1357" height="220" viewBox="0 0 1357 220" fill="none" xmlns="http://www.w3.org/2000/svg">
<path d="M1214.83 145.811L1215.58 144.158H1306.42L1307.18 145.811L1330.98 197.638H1191.02L1214.83 145.811ZM1325.85 142.504L1265.27 10.734C1263.6 7.08867 1258.43 7.08867 1256.75 10.734L1196.15 142.504L1165.44 209.324C1164 212.441 1166.27 216 1169.69 216H1352.31C1355.72 216 1358 212.441 1356.56 209.324L1325.85 142.504Z" fill="#2e393f"/>
<path d="M1114.97 25.1293C1099.81 13.7199 1082.95 7.99998 1064.37 7.99998H987V215.856H1064.37C1079.49 215.856 1093.48 212.084 1106.32 204.507C1119.17 196.947 1129.37 186.751 1136.93 173.9C1142.43 164.604 1145.91 154.692 1147.41 144.179C1148 140.189 1148.28 136.117 1148.28 131.945V91.9266C1148.28 72.6813 1142.19 55.3 1129.92 39.7453C1125.6 34.2573 1120.55 29.3333 1114.97 25.1293Z" fill="#2e393f"/>
<path d="M811.829 145.811L812.585 144.158H903.417L904.185 145.811L927.981 197.638H788.019L811.829 145.811ZM922.852 142.504L862.27 10.734C860.597 7.08867 855.426 7.08867 853.753 10.734L793.153 142.504L762.437 209.324C761.004 212.441 763.272 216 766.694 216H949.309C952.724 216 955.001 212.441 953.561 209.324L922.852 142.504Z" fill="#2e393f"/>
<path d="M705.856 108.347C715.457 103.233 722.893 96.1093 728.144 86.9946C732.665 79.1493 734.925 70.0907 734.823 61.036C734.708 50.9733 732.173 41.8493 727.217 33.6827C722.144 25.3213 714.917 18.7466 705.572 13.9733C697.796 9.98529 687.348 7.99998 674.215 7.99998H591.559C589.041 7.99998 587 10.04 587 12.5586V211.297C587 213.815 589.041 215.856 591.559 215.856H678.987C687.949 215.856 695.108 215.271 700.481 214.069C705.856 212.884 710.745 211.083 715.119 208.696C723.879 203.723 730.905 196.897 736.179 188.236C741.453 179.575 744.089 170.061 744.089 159.715C744.089 147.967 740.401 137.42 733.041 128.057C725.665 118.695 716.62 112.136 705.856 108.347Z" fill="#2e393f"/>
<path d="M498.556 132.607C498.556 142.153 495.585 150.329 489.611 157.089C483.636 163.865 475.96 167.253 466.613 167.253C457.051 167.253 449.291 163.865 443.316 157.089C437.341 150.329 434.355 142.153 434.355 132.607V86.3133C434.355 76.5493 437.341 68.3893 443.316 61.8146C449.291 55.256 457.051 51.968 466.613 51.968C475.96 51.968 483.636 55.256 489.611 61.8146C495.585 68.3893 498.556 76.5493 498.556 86.3133V132.607ZM541.577 43.3066C533.801 29.972 523.304 19.408 510.053 11.648C496.82 3.87198 482.335 0 466.613 0C450.876 0 436.391 3.87198 423.156 11.648C409.907 19.408 399.408 29.972 391.649 43.3066C383.872 56.64 380 71.076 380 86.6133V132.607C380 148.128 383.872 162.563 391.649 175.915C399.408 189.248 409.907 199.795 423.156 207.572C436.391 215.332 450.876 219.22 466.613 219.22C482.335 219.22 496.82 215.332 510.053 207.572C523.304 199.795 533.801 189.248 541.577 175.915C549.339 162.563 553.211 148.128 553.211 132.607V86.6133C553.211 71.076 549.339 56.64 541.577 43.3066Z" fill="#2e393f"/>
<path d="M272.412 19.3907C286.113 19.3907 296.944 21.5266 304.888 25.5333H304.905L304.921 25.5493C314 30.0053 320.892 36.28 325.865 44.5413C330.856 52.852 333.325 61.9973 333.343 72.2613C333.325 78.6853 332.324 84.6599 330.305 90.2506C328.285 95.8573 325.264 101.099 321.16 106.021C317.055 110.979 312.465 114.967 307.359 118.053C302.969 120.691 298.179 122.644 292.956 123.961L218.108 19.3907H272.412ZM304.839 140.517C317.739 135.861 328.736 127.767 337.515 116.501C347.611 103.585 352.768 88.6653 352.751 72.2613C352.751 59.044 349.564 46.8266 343.223 35.8293C340.067 30.3386 336.229 25.3986 331.773 21.0599C327.317 16.7039 322.244 12.9333 316.553 9.79463C304.771 3.15329 289.901 -3.05176e-05 272.112 -3.05176e-05H191.559C189.041 -3.05176e-05 187 2.03999 187 4.55733V211.641C187 214.159 189.041 216.2 191.559 216.2H232.649C235.168 216.2 237.208 214.159 237.208 211.641V144.823H246.829L284.028 196.808L296.548 214.295C297.404 215.489 298.784 216.2 300.255 216.2H350.201C353.912 216.2 356.068 212.001 353.907 208.987L304.839 140.517Z" fill="#2e393f"/>
<path d="M4.55869 216.201H46.8707C49.388 216.201 50.208 214.16 50.208 211.643V138.548H129.516C132.035 138.548 134.075 136.508 134.075 133.989V82.2121C134.075 79.6935 132.035 77.6534 129.516 77.6534H50.208V19.3921H157.887C160.405 19.3921 162.445 17.352 162.445 14.8334V4.55878C162.445 2.04146 160.405 4.57764e-05 157.887 4.57764e-05H4.55869C2.04136 4.57764e-05 0 2.04146 0 4.55878V211.643C0 214.16 2.04136 216.201 4.55869 216.201Z" fill="#2e393f"/>
</svg>
